<svg xmlns="http://www.w3.org/2000/svg" xmlns:xlink="http://www.w3.org/1999/xlink" preserveAspectRatio="none" id="visual" version="1.1" viewBox="0 41 960 110">
    <path d="M0 76L26.7 70C53.3 64 106.7 52 160 49.3C213.3 46.7 266.7 53.3 320 51.2C373.3 49 426.7 38 480 43.2C533.3 48.3 586.7 69.7 640 74C693.3 78.3 746.7 65.7 800 57.3C853.3 49 906.7 45 933.3 43L960 41L960 151L933.3 151C906.7 151 853.3 151 800 151C746.7 151 693.3 151 640 151C586.7 151 533.3 151 480 151C426.7 151 373.3 151 320 151C266.7 151 213.3 151 160 151C106.7 151 53.3 151 26.7 151L0 151Z" fill="#242424"/>
    <path d="M0 71L26.7 79.7C53.3 88.3 106.7 105.7 160 109.8C213.3 114 266.7 105 320 105.7C373.3 106.3 426.7 116.7 480 119.2C533.3 121.7 586.7 116.3 640 110C693.3 103.7 746.7 96.3 800 93.3C853.3 90.3 906.7 91.7 933.3 92.3L960 93L960 151L933.3 151C906.7 151 853.3 151 800 151C746.7 151 693.3 151 640 151C586.7 151 533.3 151 480 151C426.7 151 373.3 151 320 151C266.7 151 213.3 151 160 151C106.7 151 53.3 151 26.7 151L0 151Z" fill="#2a2a2a"/>
</svg>